<svg xmlns="http://www.w3.org/2000/svg" width="1024" height="1024" viewBox="0 0 1024 1024"><path fill="#40235a" d="M501.273 29.704c263.505-5.82 481.682 203.381 486.931 466.898s-204.425 481.24-467.953 485.917C257.531 987.182 40.62 778.29 35.387 515.581 30.154 252.871 238.575 35.507 501.273 29.704"/><defs><linearGradient id="a" x1="844.175" x2="179.507" y1="802.059" y2="209.921" gradientUnits="userSpaceOnUse"><stop offset="0" stop-color="#c36347"/><stop offset="1" stop-color="#efaf78"/></linearGradient></defs><path fill="url(#a)" d="m202.409 185.047.334-.381c7.604-8.478 28.699-25.558 37.71-32.491a443.37 443.37 0 0 1 247.424-91.521 444.8 444.8 0 0 1 324.425 115.475 445.39 445.39 0 0 1 145.351 307.313 445.1 445.1 0 0 1-118.886 326.521 444.74 444.74 0 0 1-305.158 141.849 444.92 444.92 0 0 1-322.4-116.163A444.47 444.47 0 0 1 66.213 523.418a443.44 443.44 0 0 1 66.332-251.976 452 452 0 0 1 19.342-28.814c1.552-2.149 5.814-8.319 7.593-9.769.75-1.254 1.924-2.599 2.858-3.756l.674-.881c1.043-1.435 2.629-3.229 3.793-4.632l1.341-1.632a383 383 0 0 1 34.263-36.911"/><path fill="#e09466" d="M202.409 185.047c.443.88.855 1.174.45 1.791-3.296 5.012-9.149 9.153-13.328 13.488-1.61 1.67-.421 3.208-2.576 4.966-1.911.197-2.865-.11-3.861 1.244-2.052 2.791-1.011 7.301-4.418 8.698-.903-.145-2.774-.672-3.113-.177-4.035 5.89 2.022 5.226-6.876 7.596l-.541-.695a383 383 0 0 1 34.263-36.911"/><path fill="#e09466" d="M166.805 223.59c1.583 2.862.435 3.937-2.256 5.159l-1.537-.527c1.043-1.435 2.629-3.229 3.793-4.632"/><path fill="#e09466" d="m162.338 229.103 1.077.822c-.182 2.143-.616 2.351-2.625 3.307l-1.31-.373c.75-1.254 1.924-2.599 2.858-3.756"/><path fill="#40235a" d="m359.112 191.743 188.761.246c37.603-.018 77.674-.843 115.02.043 5.431 4.139 11.769 11.058 16.686 16.132a2302 2302 0 0 0 24.047 24.669 9650 9650 0 0 1 95.902 97.006l.483 440.338c.049 13.699 1.397 27.517-8.919 37.923-9.859 9.947-21.625 8.486-34.318 8.453l-28.255-.072-101.769.016-190.361-.068-54.934.087c-7.803.017-15.749-.055-23.528-.063-36.494-.038-31.485-31.585-31.436-57.604l.027-59.749c-28.161-5.081-39.038-12.793-52.432-38.337-2.624-.246-6.212-.895-8.745-1.551a52.2 52.2 0 0 1-31.914-24.156c-7.093-12.125-8.7-24.536-5.142-38.025-8.122-3.787-14.418-8.179-20.029-15.282-14.879-18.835-13.301-49.414 3.338-66.65 2.603-2.697 5.828-5.107 8.816-7.4a62.2 62.2 0 0 1-6.348-13.212c-4.313-13.004-3.059-28.602 3.256-40.708 8.278-15.869 20.429-23.765 36.87-29.154l.108-.612c2.785-14.907 13.727-30.527 26.425-38.579 14.571-9.241 28.307-11.441 44.937-8.112.861-37.777.029-76.556.016-114.437l-.02-28.364c-.016-17.876-1.006-35.203 20.913-41.319 4.461-1.245 7.907-1.33 12.545-1.459"/><defs><linearGradient id="b" x1="755.664" x2="306.25" y1="812.72" y2="242.847" gradientUnits="userSpaceOnUse"><stop offset="0" stop-color="#f5b696"/><stop offset="1" stop-color="#fffffe"/></linearGradient></defs><path fill="url(#b)" d="M341.947 368.586a5876 5876 0 0 1-.475-96.746l-.021-31.124c-.005-6.381-1.079-23.566 3.215-28.818 3.968-4.854 17.223-4.131 22.927-4.367 13.368-.033 26.708.172 40.055.208l89.929.178 102.358.15c15.792.004 36.63-1.118 52.045.427l.025 134.006 130.797.084-.279 302.493.414 93.252c.068 16.165.084 32.381-.19 48.539-.288 16.974-24.803 13.25-36.592 13.165l-30.577-.029L606.664 800l-168.566.008c-29.005.01-58.63.634-87.51-.016-2.914-1.929-6.587-4.832-7.016-8.48-1.167-9.937-.765-22.086-.798-32.117l-.277-59.703c28.284-4.16 43.128-12.748 56.319-38.731 33.976-5.785 49.635-30.493 44.228-64.034 13.281-6.411 23.559-14.811 28.526-29.164a48.64 48.64 0 0 0-2.336-37.281c-4.613-9.497-10.699-14.963-18.949-21.225 8.732-13.164 11.882-25.655 8.687-41.448a55.6 55.6 0 0 0-24.391-35.953c-5.724-3.724-10.923-5.68-17.38-7.712-7.177-18.393-16.009-33.912-34.938-42.608-9.419-4.327-23.595-6.23-33.857-4.781-2.106.4-4.296.69-6.422 1.003z"/><path fill="#fff" d="M341.947 368.586c2.061 1.16 6.471 5.748 6.459 8.169-2.106.4-4.296.69-6.422 1.003z"/><path fill="#40235a" d="M476.696 342.212c12.39.245 17.424 5.689 23.423 15.566 20.699.058 44.405.908 64.846-.081 8.846 10.162 19.592 19.661 29.158 29.213 13.059 13.04 25.949 26.002 39.446 38.597l100.465-.005-.029 17.005-41.649-.028c-18.459-.299-47.956-1.112-65.889.442-9.753-11.044-23.515-23.792-34.333-34.319a2308 2308 0 0 1-33.82-34.095 4235 4235 0 0 0-57.475-.011c-4.308 8.843-8.511 15.161-19.101 16.923-14.842 2.469-28.108-5.988-29.961-21.452a25.05 25.05 0 0 1 5.487-18.969c5.491-6.665 11.43-8.087 19.432-8.786"/><path fill="#fff" d="M474.342 358.756a8.462 8.462 0 1 1 4.821 16.223 8.462 8.462 0 0 1-4.821-16.223"/><path fill="#40235a" d="M451.987 694.136c14.502-1.08 23.034 4.393 27.999 17.973l254.508-.101.055 16.982-36.299-.277-138.121.273c-25.604.013-55.475-.873-80.648.325-4.913 6.728-8.895 12.123-17.658 14.47a23.88 23.88 0 0 1-18.46-2.555c-5.996-3.578-10.181-9.558-11.881-16.294a25.38 25.38 0 0 1 2.875-19.353c4.184-6.928 10.134-9.711 17.63-11.443"/><path fill="#fce1cf" d="M453.085 710.794a8.758 8.758 0 1 1 5.898 16.493 8.758 8.758 0 0 1-5.898-16.493"/><path fill="#40235a" d="M501.067 624.627c14.549-.696 19.953 4.797 26.87 16.468l206.981-.174a939 939 0 0 0-.187 16.949c-12.218.359-25.67.11-37.981.113H527.872a71 71 0 0 1-1.652 3.236c-6.776 12.281-23.438 16.969-35.585 9.826-11.577-6.808-15.587-23.255-8.325-34.612 4.665-7.296 10.793-9.953 18.757-11.806"/><path fill="#fce1cf" d="M502.099 641.213a8.397 8.397 0 1 1 3.866 16.342 8.397 8.397 0 0 1-3.866-16.342"/><path fill="#40235a" d="M536.644 479.643c13.275.056 19.206 6.175 25.414 16.77q31.62.322 63.239.029l109.204-.011-.004 16.624-40.247.011-132.242.34c-3.978 7.289-9.694 13.515-17.93 15.901a24.06 24.06 0 0 1-19.187-2.601 25.4 25.4 0 0 1-11.796-16.178c-3.987-17.071 8.231-27.847 23.549-30.885"/><path fill="#fff" d="M536.436 496.764a8.236 8.236 0 1 1 2.559 16.271 8.236 8.236 0 0 1-2.559-16.271"/><path fill="#40235a" d="M409.955 274.628c4.321-.378 8.996.159 13.019 1.806a26.96 26.96 0 0 1 14.564 14.516c15.772.713 35.607.002 51.834-.005l105.917-.002-.048 16.562-37.491-.016-119.76.005a80 80 0 0 1-.958 1.776c-3.915 7.12-8.378 12.159-16.611 14.386a25.83 25.83 0 0 1-19.875-2.773c-5.806-3.443-10.262-9.479-11.745-16.075a25.7 25.7 0 0 1 3.554-19.388c4.302-6.755 10.165-9.278 17.6-10.792"/><path fill="#fff" d="M412.186 291.227a8.568 8.568 0 1 1 2.542 16.947 8.568 8.568 0 0 1-2.542-16.947"/><path fill="#40235a" d="M561.928 551.541c15.161-.595 21.588 3.473 28.179 16.965l144.397-.002-.008 16.995-36.499-.096-107.752.017c-6.447 11.984-18.057 21.156-32.292 15.411a26.88 26.88 0 0 1-14.976-15.307c-6.419-16.665 3.881-28.709 18.951-33.983"/><path fill="#fce1cf" d="M563.879 568.757a8.363 8.363 0 1 1 5.376 15.839 8.365 8.365 0 0 1-5.376-15.839"/><path fill="#e09466" d="M352.807 392.584c20.713-1.733 37.248 10.22 45.595 28.781 1.825 4.057 3.422 11.397 6.366 14.207 5.425 4.608 11.34 4.734 17.88 8.035 24.981 12.609 30.703 55.782.109 65.068-2.982.905-7.552.442-11.47 1.763-8.503 2.867-5.921 12.78 1.293 14.777 8.125 1.723 16.238-1.35 23.391-5.342 9.827 5.633 17.039 11.174 20.365 22.628a32.3 32.3 0 0 1-2.912 24.904c-5.244 9.217-12.876 13.153-22.736 15.776-5.473-2.248-7.03-4.723-10.714-9.182-3.046-3.686-8.141-7.72-12.484-3.206a9.34 9.34 0 0 0-2.646 7.103c.4 6.378 6.204 12.248 10.72 16.175 3.873 2.375 6.451 3.175 10.75 4.283 1.79 12.721 2.243 22.062-5.806 33.336-4.159 6.169-14.972 12.783-22.492 13.198-13.511.747-10.148-.431-15.317 11.773-7.145 16.871-22.549 23.432-39.894 26.137-.313-10.735-.075-22.636-.088-33.434l-.052-63.275-.147-190.81c3.588-1.118 6.619-1.847 10.289-2.695"/><path fill="#40235a" d="M370.251 551.487c4.126.566 8.967 1.759 9.392 6.574 1.065 12.076-.557 24.683.185 36.829.543 8.889 4.947 16.203 14.771 13.432 4.566-1.287 8.429-5.603 13.345-5.972 4.242-.339 5.914 5.343 6.123 8.64.11 3.202-3.458 6.651-5.497 8.782-15.787 10.95-37.099 5.052-43.146-13.289-3.579-13.198-1.568-28.066-1.888-41.684-.172-7.336.049-10.486 6.715-13.312"/><path fill="#40235a" d="M369.543 500.965c10.889-.021 10.086 8.243 12.661 16.226 6.163 19.108 20.9 19.486 37.491 21.869 6.993 1.004 9.944 10.609.386 14.755-4.073 1.03-10.613 1.012-14.786.408a49.08 49.08 0 0 1-31.917-18.907c-6.655-8.919-15.85-26.131-3.835-34.351"/><path fill="#40235a" d="M388.019 423.526a41 41 0 0 1 2.82.03c2.116.106 4.639.891 5.789 2.717 5.754 9.449-4.508 12.731-10.71 17.046-10.974 7.636-3.136 26.516-6.025 37.707-1.127 4.367-1.235 5.047-4.9 7.458-15.268.631-10.993-11.289-11.457-21.852-.228-5.206-.26-11.39.522-16.482a35.9 35.9 0 0 1 3.325-10.638c4.659-9.306 11.339-12.915 20.636-15.986"/><path fill="#40235a" d="M417.372 451.998c15.881.129 11.057 17.036 5.325 25.628-5.158 7.73-12.756 10.934-21.682 12.44-4.04-.065-7.183-.91-9.663-4.142-8.362-10.896 13.208-11.815 16.519-15.599 6.132-7.009.531-11.951 9.501-18.327"/><path fill="#e09466" d="M308.153 392.643c7.338-1.044 11.65-.033 18.245 2.814l-.226 286.825a55 55 0 0 1-3.688-.598c-13.084-2.46-24.942-10.26-30.843-22.53-1.715-3.566-2.567-8.348-4.804-11.575-3.32-4.685-10.345-1.813-15.042-3.123-23.165-6.46-31.83-23.899-27.32-46.106 11.014-2.997 22.925-10.597 20.49-24.429-1.025-5.827-8.767-6.393-12.188-2.152-5.001 6.202-6.89 8.642-14.375 11.726-5.159-.012-12.072-5.688-15.395-9.465a35.72 35.72 0 0 1-8.713-26.055c.973-12.254 7.979-21.063 16.937-28.746 4.824 2.447 8.719 4.14 14.121 4.971 12.158 1.869 28.469-2.557 13.299-15.584-9.352-.065-17.249.593-23.506-7.905-5.772-7.838-7.932-17.248-6.703-26.848a38.43 38.43 0 0 1 14.835-25.776c9.452-7.121 24.131-9.494 35.268-7.678 22.991 3.75 8.042 33.189 16.601 46.135.792 1.198 3.314 2.716 4.836 2.58 12.661-1.132 7.612-16.876 8.823-25.237 1.403-16.917-6.944-33.933-24.013-38.956-4.638-1.364-9.206-1.147-13.795-1.169 7.847-18.187 17.112-27.58 37.156-31.119"/><path fill="#40235a" d="M298.034 551.483c3.243.118 3.998.434 6.965 1.421 1.433 1.35 2.163 2.493 3.324 4.096.552 11.697 1.915 41.814-2.552 51.659-2.923 6.44-8.128 11.136-14.736 13.578-9.277 3.427-18.668 2.294-27.511-1.675-4.634-3.35-11.629-10.54-5.226-17.511 4.536-4.939 13.632 4.156 17.801 4.957 25.068 4.815 12.615-36.541 16.368-49.931 1.145-4.088 2.094-4.568 5.567-6.594"/><path fill="#40235a" d="M297.557 501.48c5.98-.027 11.047 1.795 11.141 8.867.132 9.952-6.359 20.697-12.878 27.8-11.813 12.87-25.728 16.237-42.61 16.807-2.346-.307-7.185-1.231-8.571-3.274-10.112-14.897 12.494-13.003 19.686-14.289a37.4 37.4 0 0 0 10.791-3.719c18.409-9.615 13.499-24.528 22.441-32.192"/><path fill="#40235a" d="M249.073 450.985c12.78.217 7.234 10.479 12.714 17.89 4.582 6.197 21.198 4.697 17.696 15.807-.971 3.08-3.562 4.603-6.264 5.861-11.783.359-20.944-5.726-26.986-15.505-5.251-8.496-7.166-18.366 2.84-24.053"/><path fill="#fce1cf" d="M668.59 221.417c2.816 1.92 8.527 7.927 11.127 10.573l18.282 18.614a4159 4159 0 0 1 73.632 74.992l-103.062-.007q-.321-52.087.021-104.172"/></svg>
